<?xml version="1.0" standalone="no"?>
<!DOCTYPE svg PUBLIC "-//W3C//DTD SVG 20010904//EN" "http://www.w3.org/TR/2001/REC-SVG-20010904/DTD/svg10.dtd">
<!-- Created using Karbon, part of Calligra: http://www.calligra.org/karbon -->
<svg xmlns="http://www.w3.org/2000/svg" xmlns:xlink="http://www.w3.org/1999/xlink" width="102.4pt" height="102.4pt">
<defs>
  <radialGradient id="gradient0" gradientTransform="matrix(0 3.83736 -3.28029 0 48.6066 -43.9253)" gradientUnits="objectBoundingBox" cx="0.23572554167" cy="0.14373361000" fx="0.23572554167" fy="0.14373361000" r="0.27969962435" spreadMethod="pad">
   <stop stop-color="#5f5f5f" offset="0.00000000000" stop-opacity="1.00000000000"/>
   <stop stop-color="#4f4f4f" offset="0.26238000393" stop-opacity="1.00000000000"/>
   <stop stop-color="#3b3b3b" offset="0.70495200157" stop-opacity="1.00000000000"/>
   <stop stop-color="#2b2b2b" offset="1.00000000000" stop-opacity="1.00000000000"/>
  </radialGradient>
  <linearGradient id="gradient1" gradientTransform="matrix(2.65759 0 0 2.79525 -42.9596 -38.5933)" gradientUnits="objectBoundingBox" x1="0.50000000000" y1="0.83018868249" x2="0.50000000000" y2="0.07356606821" spreadMethod="pad">
   <stop stop-color="#272727" offset="0.00000000000" stop-opacity="1.00000000000"/>
   <stop stop-color="#454545" offset="1.00000000000" stop-opacity="1.00000000000"/>
  </linearGradient>
  <linearGradient id="gradient2" gradientTransform="matrix(2.45946 0 0 2.89189 -41.5895 -41.9679)" gradientUnits="objectBoundingBox" x1="0.53202378202" y1="0.28204714624" x2="0.53202378202" y2="0.63763648974" spreadMethod="pad">
   <stop stop-color="#ffffff" offset="0.00000000000" stop-opacity="1.00000000000"/>
   <stop stop-color="#ffffff" offset="0.13197395205" stop-opacity="0.23529411765"/>
   <stop stop-color="#ffffff" offset="0.97377032042" stop-opacity="0.15686274510"/>
   <stop stop-color="#ffffff" offset="1.00000000000" stop-opacity="0.39215686275"/>
  </linearGradient>
 </defs>
<g id="layer0">
  <path id="rect2382-2" transform="translate(16.7707, 18.4321)" fill="#ffffff" opacity="0.40000000000" d="M46.7944 0.000416227C43.5147 -0.0179194 40.635 0.569418 38.6749 1.78621C36.1461 3.35605 35.0312 3.5553 34.3252 2.47306C33.6497 1.43764 33.0354 1.55331 32.4403 3.02253C31.937 4.26507 30.885 4.83231 29.6855 4.39622C28.5418 3.98041 28.0728 4.11435 28.5255 4.80835C28.9606 5.47532 28.7479 6.04466 28.0905 6.04466C27.4332 6.04466 25.328 8.1488 23.4508 10.7152C20.4584 14.8063 19.9703 16.6761 19.9711 25.2763C19.9715 30.6723 20.5418 35.9264 18.8111 36.2658C17.7961 36.4649 17.8927 40.2154 18.3761 44.0959C19.0083 49.1702 19.9525 51.6561 22.5809 53.9864C26.6747 57.6161 30.4104 63.899 30.4104 67.3112C30.4104 72.0877 17.8296 80.6755 0 88.2672L1.39592e-14 99.3182C37.1177 99.3182 96.2645 99.3182 96.2645 99.3182L96.2645 87.7792C80.5333 81.5761 66.6581 72.066 66.6581 67.3112C66.6581 63.9073 70.2529 57.6124 74.3427 53.9864C76.971 51.6561 78.0603 49.1702 78.6924 44.0959C79.1758 40.2154 79.2411 36.5755 78.2574 36.2658C76.902 35.8391 76.9525 30.6281 76.9525 25.2763C76.9525 17.605 76.4371 14.7502 74.3427 11.5394C70.1749 5.1504 56.6334 0.055534 46.7944 0.000427687Z"/>
  <path id="rect2382" transform="translate(17.753, 13.6572)" fill="url(#gradient0)" stroke="url(#gradient1)" stroke-width="1.00000000000" stroke-linecap="round" stroke-linejoin="round" d="M45.8394 0.000425526C42.6267 -0.0182921 39.8057 0.580369 37.8856 1.82057C35.4084 3.42059 34.3162 3.62367 33.6247 2.52062C32.963 1.46529 32.3612 1.58319 31.7782 3.08066C31.2853 4.34709 30.2547 4.92524 29.0796 4.48077C27.9593 4.05696 27.4999 4.19347 27.9434 4.90082C28.3695 5.58062 28.1612 6.16091 27.5173 6.16091C26.8734 6.16091 24.8111 8.30551 22.9722 10.9213C20.0409 15.091 19.5627 16.9968 19.5635 25.7624C19.5639 31.2622 20.1225 36.6173 18.4272 36.9633C17.4329 37.1662 17.5276 40.9888 18.0011 44.9439C18.6204 50.1158 19.5453 52.6495 22.12 55.0246C26.1304 58.7241 29.7898 65.1279 29.7898 68.6057C29.7898 73.474 17.4657 82.2269 0 89.9646L0 101.228C36.3602 101.228 94.2999 101.228 94.2999 101.228L94.2999 89.4672C78.8898 83.1449 65.2978 73.4519 65.2978 68.6057C65.2978 65.1363 68.8192 58.7203 72.8255 55.0246C75.4002 52.6495 76.4672 50.1158 77.0864 44.9439C77.5599 40.9888 77.624 37.2789 76.6603 36.9633C75.3325 36.5284 75.382 31.2171 75.382 25.7624C75.382 17.9436 74.8772 15.0339 72.8255 11.7613C68.7428 5.24945 55.4776 0.0566033 45.8394 0.000440806Z"/>
  <path id="path3385" transform="translate(19.8404, 15.6866)" fill="#92a8bd" stroke="url(#gradient2)" stroke-width="1.00000000000" stroke-linecap="round" stroke-linejoin="round" opacity="0.50000000000" d="M43.7733 0.000382165C40.8223 -0.0168075 38.3299 0.547176 36.9587 1.43286C35.6414 2.28371 34.6765 2.93822 33.3979 3.16376C32.7586 3.27653 31.9408 3.18641 31.2491 2.86533C31.1134 2.80232 31.0623 2.70417 30.9422 2.62658C30.5566 3.20314 30.2491 3.83969 29.5915 4.17843C29.1039 4.42959 28.5509 4.21017 27.9953 4.23812C27.977 4.30569 28.0195 4.34828 27.9953 4.41718C27.6338 5.44635 26.378 6.14808 25.4168 6.14808C26.459 6.14808 26.2135 5.94604 26.0307 6.08839C25.8479 6.23074 25.4761 6.53933 25.1098 6.924C24.3771 7.69336 23.458 8.79677 22.5927 10.0277C21.1838 12.0317 20.5485 13.2337 20.137 15.0414C19.7254 16.849 19.584 19.4063 19.5844 23.7556C19.5846 26.4421 19.7314 29.1247 19.6458 31.3357C19.603 32.4412 19.4965 33.4397 19.2161 34.3797C19.0758 34.8498 18.9161 35.3317 18.5407 35.8122C18.388 36.0077 18.0356 36.0566 17.804 36.23C17.7558 36.4051 17.6999 36.8909 17.6812 37.5431C17.6439 38.8476 17.7586 40.7589 17.9882 42.6762C18.589 47.6943 19.2115 49.4667 21.4262 51.5097C23.6357 53.548 25.6819 56.1889 27.1972 58.8512C28.7125 61.5135 29.7757 64.1171 29.7757 66.5507C29.7757 68.6016 28.6616 70.3516 27.0744 72.1612C25.4872 73.9709 23.2828 75.8273 20.5667 77.7718C15.4071 81.4655 8.26657 85.431 0 89.1719L0 97.1698L90.1252 97.1698L90.1252 88.6944C82.7759 85.5674 75.8979 81.7922 70.7249 78.0702C67.9817 76.0964 65.698 74.1425 64.0331 72.2806C62.3681 70.4187 61.1476 68.6854 61.1476 66.5507C61.1476 64.1538 62.1347 61.5785 63.6033 58.9109C65.0719 56.2433 67.093 53.5576 69.3129 51.5097C71.5637 49.4333 72.3398 47.6483 72.9351 42.6762C73.1643 40.7617 73.2827 38.8942 73.242 37.6028C73.2217 36.9571 73.1724 36.4277 73.1193 36.23C72.3936 35.6509 72.0155 34.969 71.83 34.3201C71.579 33.4418 71.4222 32.4906 71.3388 31.3954C71.1722 29.2052 71.2161 26.4782 71.2161 23.7556C71.2161 16.0256 70.7897 13.7467 68.9445 10.8036C67.2976 8.17671 63.2878 5.29933 58.5077 3.28313C53.7276 1.26694 48.2117 0.026245 43.7733 0.000382165Z"/>
 </g>
</svg>
